<svg xmlns="http://www.w3.org/2000/svg" xmlns:xlink="http://www.w3.org/1999/xlink" width="1280" height="1024" version="1.1" viewBox="0 0 1280 1024" xml:space="preserve"><desc>Created with Fabric.js 3.6.3</desc><g id="background-logo" transform="matrix(1.9662058371735793 0 0 1.9662058371735793 640.2456813819576 512.1966205837173)"><rect style="stroke:none;stroke-width:1;stroke-dasharray:none;stroke-linecap:butt;stroke-dashoffset:0;stroke-linejoin:miter;stroke-miterlimit:4;fill:#fff;fill-rule:nonzero;opacity:1" width="650" height="520" x="-325" y="-260" paint-order="stroke" rx="0" ry="0"/></g><g id="logo-logo"><g paint-order="stroke"><g><path style="stroke:none;stroke-width:1;stroke-dasharray:none;stroke-linecap:butt;stroke-dashoffset:0;stroke-linejoin:miter;stroke-miterlimit:4;fill:#171718;fill-rule:nonzero;opacity:1" stroke-linecap="round" d="M 0 0 L -16.896 19.343 L 0 24.368 L 16.896 19.343 Z M 36.626 131.12 H 57.134 V 103.988 H 0 H -57.134 v 27.132 h 20.508 z m -66.859 29.859 l 15.31 -12.183 L 0 166.397 L 14.923 148.796 L 30.233 160.979 V 137.512 H -30.233 Z M 33.896 51.724 L 47.345 54.196 L 36.623 41.923 Z m -30.7 -12.273 l 14.14 11.468 l -5.069 21.472 l 44.911 8.356 l 5.474 16.849 H 85.257 L 54.106 61.938 L 25.857 56.75 L 31.589 36.161 L 21.519 24.631 L 3.196 30.084 Z m -66.722 64.537 h -21.301 l 21.301 22.343 z m 53.797 -48.656 l 5.228 22.115 l -47.77 8.887 l -3.658 11.262 H 0 H 55.929 L 52.271 86.334 L 4.507 77.447 L 9.727 55.332 Z M 0 45.085 L -4.754 48.939 H 4.751 Z M 63.526 126.331 L 84.83 103.988 H 63.526 Z M -54.106 61.938 L -85.257 97.596 h 22.605 l 5.475 -16.849 l 44.91 -8.356 l -5.082 -21.472 l 14.153 -11.472 v -9.363 l -18.323 -5.453 l -10.069 11.53 l 5.724 20.589 z m 17.483 -20.015 l -10.722 12.273 l 13.45 -2.472 z M 24.122 17.895 L 96.619 100.886 L 61.7 137.512 H 36.626 v 36.726 L 15.788 157.654 L 0 176.28 L -15.794 157.654 L -36.626 174.238 V 137.512 H -61.7 l -34.919 -36.626 l 72.497 -82.991 l 0.193 -0.647 l 0.294 0.088 L 0 -9.717 L 23.635 17.336 L 23.929 17.248 Z" paint-order="stroke" transform="matrix(1.9699870022450665 0 0 1.9699870022450665 640.2456813819578 421.5687788331531) matrix(1.4953369620679504 0 0 -1.4953369620679502 0 0) translate(0, -83.28150000000001)"/></g><g><path style="stroke:none;stroke-width:1;stroke-dasharray:none;stroke-linecap:butt;stroke-dashoffset:0;stroke-linejoin:miter;stroke-miterlimit:4;fill:#171718;fill-rule:nonzero;opacity:1" stroke-linecap="round" d="M 0 0 C 2.94 0 5.325 2.385 5.325 5.325 C 5.325 8.269 2.94 10.653 0 10.653 C -2.94 10.653 -5.325 8.269 -5.325 5.325 C -5.325 2.385 -2.94 0 0 0" paint-order="stroke" transform="matrix(1.9699870022450665 0 0 1.9699870022450665 640.2456813819578 421.5687788331531) matrix(1.4953369620679504 0 0 -1.4953369620679502 57.95163443124716 -51.24609489224591) translate(0, -5.3265)"/></g><g><path style="stroke:none;stroke-width:1;stroke-dasharray:none;stroke-linecap:butt;stroke-dashoffset:0;stroke-linejoin:miter;stroke-miterlimit:4;fill:#171718;fill-rule:nonzero;opacity:1" stroke-linecap="round" d="M 0 0 L -21.176 8.524 L -42.351 0 L -21.176 -8.521 Z" paint-order="stroke" transform="matrix(1.9699870022450665 0 0 1.9699870022450665 640.2456813819578 421.5687788331531) matrix(1.4953369620679504 0 0 -1.4953369620679502 0.00044860108869215765 -50.42066888918433) translate(21.1755, -0.0015000000000000568)"/></g><g><path style="stroke:none;stroke-width:1;stroke-dasharray:none;stroke-linecap:butt;stroke-dashoffset:0;stroke-linejoin:miter;stroke-miterlimit:4;fill:#171718;fill-rule:nonzero;opacity:1" stroke-linecap="round" d="M 0 0 C 2.94 0 5.325 2.385 5.325 5.325 C 5.325 8.269 2.94 10.653 0 10.653 C -2.94 10.653 -5.325 8.269 -5.325 5.325 C -5.325 2.385 -2.94 0 0 0" paint-order="stroke" transform="matrix(1.9699870022450665 0 0 1.9699870022450665 640.2456813819578 421.5687788331531) matrix(1.4953369620679504 0 0 -1.4953369620679502 -57.951634431247214 -51.24609489224591) translate(0, -5.3265)"/></g></g></g><g id="text-logo-path"><path style="stroke:#171718;stroke-width:17;stroke-dasharray:none;stroke-linecap:butt;stroke-dashoffset:0;stroke-linejoin:miter;stroke-miterlimit:4;fill:#fff;fill-rule:nonzero;opacity:1" stroke-linecap="round" d="M 15.67 0 L 2.79 0 L 2.79 -3.09 L 6.45 -3.09 L 6.45 -36.12 L 2.79 -36.12 L 2.79 -39.21 L 14.85 -39.21 Q 26.93 -39.21 26.93 -29.72 L 26.93 -29.72 Q 26.93 -25.76 23.9 -21.16 L 23.9 -21.16 Q 29.23 -18.98 29.23 -11.59 L 29.23 -11.59 Q 29.23 -4.98 25.89 -2.49 Q 22.56 0 15.67 0 L 15.67 0 Z M 10.25 -19.2 L 10.25 -3.09 L 15.39 -3.09 Q 17.96 -3.09 19.59 -3.36 Q 21.22 -3.64 22.67 -4.48 L 22.67 -4.48 Q 25.4 -5.99 25.43 -11.38 L 25.43 -11.38 Q 25.43 -15.64 23.27 -17.42 Q 21.11 -19.2 16.79 -19.2 L 16.79 -19.2 L 10.25 -19.2 Z M 10.25 -36.12 L 10.25 -22.29 L 17.09 -22.29 Q 19.17 -22.29 20.67 -22.07 L 20.67 -22.07 Q 23.13 -25.92 23.13 -29.39 L 23.13 -29.39 Q 23.13 -36.12 14.55 -36.12 L 14.55 -36.12 L 10.25 -36.12 Z M 45.14 0 L 33.03 0 L 33.03 -3.09 L 36.45 -3.09 L 36.45 -36.12 L 33.03 -36.12 L 33.03 -39.21 L 46.54 -39.21 Q 54.09 -39.21 58.65 -34.81 Q 63.22 -30.41 63.22 -20.51 L 63.22 -20.51 Q 63.22 -10.72 60.05 -5.82 L 60.05 -5.82 Q 57.26 -1.56 51.3 -0.44 L 51.3 -0.44 Q 48.67 0 45.14 0 L 45.14 0 Z M 40.28 -36.12 L 40.28 -3.09 L 44.87 -3.09 Q 52.31 -3.09 55.1 -5.82 L 55.1 -5.82 Q 58.08 -8.67 58.93 -13.56 L 58.93 -13.56 Q 59.42 -16.41 59.42 -20.21 L 59.42 -20.21 Q 59.42 -28.6 55.75 -32.36 Q 52.09 -36.12 46.27 -36.12 L 46.27 -36.12 L 40.28 -36.12 Z M 66.06 -3.36 L 66.06 -3.36 L 66.12 -9.3 L 68.88 -9.57 L 68.99 -5.33 Q 73.23 -3.31 77.98 -3.31 L 77.98 -3.31 Q 84.19 -3.31 87.23 -6.45 L 87.23 -6.45 Q 88.98 -8.29 88.98 -10.77 L 88.98 -10.77 Q 88.98 -13.18 87.77 -14.77 Q 86.57 -16.35 84.67 -17.23 Q 82.77 -18.1 80.45 -18.74 Q 78.12 -19.39 75.8 -20.11 Q 73.47 -20.84 71.56 -21.85 Q 69.64 -22.86 68.44 -24.71 Q 67.24 -26.55 67.24 -29.12 L 67.24 -29.12 Q 67.24 -33.61 70.6 -36.46 Q 73.96 -39.32 79.5 -39.32 Q 85.04 -39.32 89.93 -38.2 L 89.93 -38.2 L 89.93 -38.14 L 90.1 -38.14 L 90.7 -31.14 L 87.96 -30.68 L 87.34 -35.38 Q 84.19 -35.93 80.42 -35.93 L 80.42 -35.93 Q 80.39 -35.93 80.36 -35.96 L 80.36 -35.96 Q 76.64 -35.93 73.86 -34.29 Q 71.07 -32.65 71.05 -29.63 Q 71.04 -26.61 73.28 -25.03 Q 75.52 -23.46 78.72 -22.65 Q 81.92 -21.85 85.11 -20.84 Q 88.29 -19.82 90.54 -17.36 Q 92.78 -14.9 92.78 -10.86 L 92.78 -10.86 Q 92.78 -5.41 88.74 -2.68 Q 84.71 0.05 78.72 0.05 L 78.72 0.05 Q 71.18 0.05 66.06 -3.36 Z M 95.29 -17.91 L 95.29 -17.91 Q 95.29 -27.81 99.83 -33.39 L 99.83 -33.39 Q 104.59 -39.21 112.82 -39.21 L 112.82 -39.21 Q 115.34 -39.21 118.28 -38.73 Q 121.21 -38.25 122.45 -37.79 L 122.45 -37.79 L 123.13 -29.72 L 120.37 -29.34 L 119.6 -35.38 Q 116.02 -36.18 112.82 -36.18 L 112.82 -36.18 Q 106.5 -36.18 102.8 -31.47 Q 99.09 -26.77 99.09 -17.91 L 99.09 -17.91 Q 99.09 -14.11 99.89 -11.25 Q 100.68 -8.39 101.81 -6.84 Q 102.95 -5.28 104.64 -4.38 L 104.64 -4.38 Q 107.32 -2.87 110.91 -2.84 L 110.91 -2.84 Q 116.46 -2.84 122.01 -4.1 L 122.01 -4.1 L 122.66 -1.18 Q 121.71 -0.85 117.61 -0.31 Q 113.5 0.22 110.92 0.22 Q 108.34 0.22 106.44 -0.14 Q 104.54 -0.49 102.4 -1.67 Q 100.27 -2.84 98.79 -4.79 Q 97.32 -6.73 96.3 -10.09 Q 95.29 -13.45 95.29 -17.91 Z M 138.61 0 L 127.29 0 L 127.29 -3.09 L 131 -3.09 L 131 -36.12 L 127.29 -36.12 L 127.29 -39.21 L 138.61 -39.21 L 138.61 -36.12 L 134.8 -36.12 L 134.8 -3.09 L 138.61 -3.09 L 138.61 0 Z" paint-order="stroke" transform="matrix(1.9699870022450665 0 0 1.9699870022450665 640.2456813819576 795.5692654002814) translate(-70.70000000000002, 19.55)"/></g></svg>