<?xml version="1.0" encoding="UTF-8" standalone="no" ?>
<!DOCTYPE svg PUBLIC "-//W3C//DTD SVG 1.1//EN" "http://www.w3.org/Graphics/SVG/1.1/DTD/svg11.dtd">
<svg xmlns="http://www.w3.org/2000/svg" xmlns:xlink="http://www.w3.org/1999/xlink" version="1.1" width="1280" height="1024" viewBox="0 0 1280 1024" xml:space="preserve">
<desc>Created with Fabric.js 3.6.3</desc>
<defs>
</defs>
<g transform="matrix(1.966205837173579 0 0 1.966205837173579 640.2456813819576 512.1966205837173)" id="background-logo"  >
<rect style="stroke: none; stroke-width: 1; stroke-dasharray: none; stroke-linecap: butt; stroke-dashoffset: 0; stroke-linejoin: miter; stroke-miterlimit: 4; fill: rgb(255,255,255); fill-rule: nonzero; opacity: 1;"  paint-order="stroke"  x="-325" y="-260" rx="0" ry="0" width="650" height="520" />
</g>
<g transform="matrix(1.9699870022450665 0 0 1.9699870022450665 640.2456813819578 421.5687788331531)" id="logo-logo"  >
<g style=""  paint-order="stroke"   >
		<g transform="matrix(1.4953369620679504 0 0 -1.4953369620679502 0 0)"  >
<path style="stroke: none; stroke-width: 1; stroke-dasharray: none; stroke-linecap: butt; stroke-dashoffset: 0; stroke-linejoin: miter; stroke-miterlimit: 4; fill: rgb(23,23,24); fill-rule: nonzero; opacity: 1;"  paint-order="stroke"  transform=" translate(0, -83.28150000000001)" d="M 0 0 L -16.896 19.343 L 0 24.368 L 16.896 19.343 Z M 36.626 131.12 H 57.134 V 103.988 H 0 H -57.134 v 27.132 h 20.508 z m -66.859 29.859 l 15.31 -12.183 L 0 166.397 L 14.923 148.796 L 30.233 160.979 V 137.512 H -30.233 Z M 33.896 51.724 L 47.345 54.196 L 36.623 41.923 Z m -30.7 -12.273 l 14.14 11.468 l -5.069 21.472 l 44.911 8.356 l 5.474 16.849 H 85.257 L 54.106 61.938 L 25.857 56.75 L 31.589 36.161 L 21.519 24.631 L 3.196 30.084 Z m -66.722 64.537 h -21.301 l 21.301 22.343 z m 53.797 -48.656 l 5.228 22.115 l -47.77 8.887 l -3.658 11.262 H 0 H 55.929 L 52.271 86.334 L 4.507 77.447 L 9.727 55.332 Z M 0 45.085 L -4.754 48.939 H 4.751 Z M 63.526 126.331 L 84.83 103.988 H 63.526 Z M -54.106 61.938 L -85.257 97.596 h 22.605 l 5.475 -16.849 l 44.91 -8.356 l -5.082 -21.472 l 14.153 -11.472 v -9.363 l -18.323 -5.453 l -10.069 11.53 l 5.724 20.589 z m 17.483 -20.015 l -10.722 12.273 l 13.45 -2.472 z M 24.122 17.895 L 96.619 100.886 L 61.7 137.512 H 36.626 v 36.726 L 15.788 157.654 L 0 176.28 L -15.794 157.654 L -36.626 174.238 V 137.512 H -61.7 l -34.919 -36.626 l 72.497 -82.991 l 0.193 -0.647 l 0.294 0.088 L 0 -9.717 L 23.635 17.336 L 23.929 17.248 Z" stroke-linecap="round" />
</g>
		<g transform="matrix(1.4953369620679504 0 0 -1.4953369620679502 57.95163443124716 -51.24609489224591)"  >
<path style="stroke: none; stroke-width: 1; stroke-dasharray: none; stroke-linecap: butt; stroke-dashoffset: 0; stroke-linejoin: miter; stroke-miterlimit: 4; fill: rgb(23,23,24); fill-rule: nonzero; opacity: 1;"  paint-order="stroke"  transform=" translate(0, -5.3265)" d="M 0 0 C 2.94 0 5.325 2.385 5.325 5.325 C 5.325 8.269 2.94 10.653 0 10.653 C -2.94 10.653 -5.325 8.269 -5.325 5.325 C -5.325 2.385 -2.94 0 0 0" stroke-linecap="round" />
</g>
		<g transform="matrix(1.4953369620679504 0 0 -1.4953369620679502 0.00044860108869215765 -50.42066888918433)"  >
<path style="stroke: none; stroke-width: 1; stroke-dasharray: none; stroke-linecap: butt; stroke-dashoffset: 0; stroke-linejoin: miter; stroke-miterlimit: 4; fill: rgb(23,23,24); fill-rule: nonzero; opacity: 1;"  paint-order="stroke"  transform=" translate(21.1755, -0.0015000000000000568)" d="M 0 0 L -21.176 8.524 L -42.351 0 L -21.176 -8.521 Z" stroke-linecap="round" />
</g>
		<g transform="matrix(1.4953369620679504 0 0 -1.4953369620679502 -57.951634431247214 -51.24609489224591)"  >
<path style="stroke: none; stroke-width: 1; stroke-dasharray: none; stroke-linecap: butt; stroke-dashoffset: 0; stroke-linejoin: miter; stroke-miterlimit: 4; fill: rgb(23,23,24); fill-rule: nonzero; opacity: 1;"  paint-order="stroke"  transform=" translate(0, -5.3265)" d="M 0 0 C 2.94 0 5.325 2.385 5.325 5.325 C 5.325 8.269 2.94 10.653 0 10.653 C -2.94 10.653 -5.325 8.269 -5.325 5.325 C -5.325 2.385 -2.94 0 0 0" stroke-linecap="round" />
</g>
</g>
</g>
<g transform="matrix(1.9699870022450665 0 0 1.9699870022450665 641.2845417151728 796.5025664424652)" id="text-logo-path"  >
<path style="stroke: rgb(23,23,24); stroke-width: 17; stroke-dasharray: none; stroke-linecap: butt; stroke-dashoffset: 0; stroke-linejoin: miter; stroke-miterlimit: 4; fill: rgb(255,255,255); fill-rule: nonzero; opacity: 1;"  paint-order="stroke"  transform=" translate(-246.955, 13.595)" d="M 16.45 0 L 3.05 0 L 3.05 -27.21 L 14.84 -27.21 Q 17.71 -27.21 19.77 -26.66 Q 21.82 -26.11 22.98 -25.09 Q 24.14 -24.06 24.67 -22.74 Q 25.2 -21.43 25.2 -19.73 L 25.2 -19.73 Q 25.2 -18.75 24.89 -17.81 Q 24.59 -16.88 24.13 -16.22 Q 23.67 -15.57 23.3 -15.15 Q 22.93 -14.73 22.64 -14.51 L 22.64 -14.51 Q 24.61 -13.52 25.66 -11.82 Q 26.72 -10.12 26.72 -7.93 L 26.72 -7.93 Q 26.72 -6.21 26.14 -4.81 Q 25.57 -3.42 24.38 -2.31 Q 23.2 -1.21 21.18 -0.61 Q 19.16 0 16.45 0 L 16.45 0 Z M 9.61 -10.92 L 9.61 -5.64 L 15.68 -5.64 Q 19.65 -5.64 19.65 -8.28 L 19.65 -8.28 Q 19.65 -9.73 18.68 -10.32 Q 17.71 -10.92 15.68 -10.92 L 15.68 -10.92 L 9.61 -10.92 Z M 9.61 -21.6 L 9.61 -15.92 L 15.23 -15.92 Q 17.32 -15.92 18.14 -16.59 Q 18.96 -17.27 18.96 -18.89 L 18.96 -18.89 Q 18.96 -21.6 15.23 -21.6 L 15.23 -21.6 L 9.61 -21.6 Z M 52.15 0 L 31.31 0 L 31.31 -27.21 L 37.87 -27.21 L 37.87 -6.07 L 52.15 -6.07 L 52.15 0 Z M 62.17 0 L 55.21 0 L 66.86 -27.21 L 74.16 -27.21 L 85.84 0 L 78.85 0 L 77.09 -4.24 L 63.96 -4.24 L 62.17 0 Z M 70.57 -19.77 L 66.25 -9.61 L 74.8 -9.61 L 70.57 -19.77 Z M 86.37 -13.81 L 86.37 -13.81 Q 86.37 -16.62 87.48 -19.16 Q 88.59 -21.7 90.53 -23.57 Q 92.46 -25.45 95.21 -26.56 Q 97.97 -27.68 101.09 -27.68 L 101.09 -27.68 Q 105.35 -27.68 108.68 -25.85 Q 112.01 -24.02 113.89 -20.88 L 113.89 -20.88 L 108.32 -17.64 Q 107.32 -19.55 105.47 -20.65 Q 103.61 -21.76 101.09 -21.76 L 101.09 -21.76 Q 97.56 -21.76 95.28 -19.48 Q 93.01 -17.21 93.01 -13.81 L 93.01 -13.81 Q 93.01 -11.66 94.02 -9.8 Q 95.04 -7.95 96.9 -6.82 Q 98.77 -5.68 101.09 -5.68 L 101.09 -5.68 Q 103.52 -5.68 105.36 -6.8 Q 107.21 -7.91 108.24 -9.8 L 108.24 -9.8 L 113.81 -6.6 Q 111.89 -3.4 108.57 -1.46 Q 105.25 0.49 101.09 0.49 L 101.09 0.49 Q 97.95 0.49 95.21 -0.63 Q 92.46 -1.74 90.53 -3.64 Q 88.59 -5.55 87.48 -8.18 Q 86.37 -10.82 86.37 -13.81 Z M 124.77 0 L 118.2 0 L 118.2 -27.21 L 124.77 -27.21 L 124.77 -15.23 L 135.16 -27.21 L 143.4 -27.21 L 134.04 -16.23 L 145.39 0 L 136.88 0 L 129.43 -11.23 L 124.77 -6.11 L 124.77 0 Z M 161.5 0 L 149.47 0 L 149.47 -27.17 L 161.5 -27.21 Q 161.56 -27.21 161.62 -27.21 L 161.62 -27.21 Q 164.84 -27.23 167.52 -26.21 L 167.52 -26.21 Q 170.23 -25.2 172.05 -23.38 Q 173.87 -21.56 174.86 -19.06 Q 175.86 -16.56 175.86 -13.63 L 175.86 -13.63 Q 175.86 -9.71 174.05 -6.6 Q 172.25 -3.5 168.96 -1.75 Q 165.68 0 161.5 0 L 161.5 0 Z M 156.04 -21.11 L 156.04 -6.07 L 161.5 -6.07 Q 164.94 -6.07 167.08 -8.15 Q 169.22 -10.23 169.22 -13.63 L 169.22 -13.63 Q 169.22 -17.23 167.14 -19.17 Q 165.06 -21.11 161.5 -21.11 L 161.5 -21.11 L 156.04 -21.11 Z M 187.03 0 L 180.47 0 L 180.47 -27.21 L 187.03 -27.21 L 187.03 0 Z M 198.46 0 L 191.5 0 L 203.14 -27.21 L 210.45 -27.21 L 222.13 0 L 215.14 0 L 213.38 -4.24 L 200.25 -4.24 L 198.46 0 Z M 206.86 -19.77 L 202.54 -9.61 L 211.09 -9.61 L 206.86 -19.77 Z M 233.14 0 L 226.58 0 L 226.58 -27.21 L 233.85 -27.21 L 243.34 -7.25 L 252.77 -27.21 L 260.1 -27.21 L 260.1 0 L 253.5 0 L 253.5 -13.89 L 246.97 0 L 239.65 0 L 233.14 -13.89 L 233.14 0 Z M 264.38 -13.59 L 264.38 -13.59 Q 264.38 -16.45 265.48 -19.04 Q 266.58 -21.64 268.46 -23.54 Q 270.33 -25.43 272.93 -26.55 Q 275.53 -27.68 278.4 -27.68 L 278.4 -27.68 Q 281.23 -27.68 283.84 -26.55 Q 286.45 -25.43 288.32 -23.54 Q 290.2 -21.64 291.32 -19.03 Q 292.44 -16.43 292.44 -13.59 L 292.44 -13.59 Q 292.44 -10.74 291.33 -8.13 Q 290.21 -5.53 288.33 -3.64 Q 286.45 -1.76 283.84 -0.63 Q 281.23 0.49 278.4 0.49 L 278.4 0.49 Q 274.57 0.49 271.34 -1.41 Q 268.11 -3.3 266.24 -6.53 Q 264.38 -9.77 264.38 -13.59 Z M 270.37 -13.59 L 270.37 -13.59 Q 270.37 -10.27 272.72 -7.94 Q 275.08 -5.61 278.4 -5.61 L 278.4 -5.61 Q 281.68 -5.61 284.02 -7.94 Q 286.37 -10.27 286.37 -13.59 L 286.37 -13.59 Q 286.37 -16.88 284.02 -19.22 Q 281.68 -21.56 278.4 -21.56 L 278.4 -21.56 Q 275.08 -21.56 272.72 -19.23 Q 270.37 -16.89 270.37 -13.59 Z M 302.95 0 L 296.35 0 L 296.35 -27.21 L 302.95 -27.21 L 316.72 -10.61 L 316.72 -27.21 L 323.32 -27.21 L 323.32 0 L 316.72 0 L 302.95 -16.64 L 302.95 0 Z M 341.05 0 L 329.02 0 L 329.02 -27.17 L 341.05 -27.21 Q 341.11 -27.21 341.17 -27.21 L 341.17 -27.21 Q 344.39 -27.23 347.07 -26.21 L 347.07 -26.21 Q 349.79 -25.2 351.6 -23.38 Q 353.42 -21.56 354.41 -19.06 Q 355.41 -16.56 355.41 -13.63 L 355.41 -13.63 Q 355.41 -9.71 353.6 -6.6 Q 351.8 -3.5 348.52 -1.75 Q 345.23 0 341.05 0 L 341.05 0 Z M 335.59 -21.11 L 335.59 -6.07 L 341.05 -6.07 Q 344.49 -6.07 346.63 -8.15 Q 348.77 -10.23 348.77 -13.63 L 348.77 -13.63 Q 348.77 -17.23 346.69 -19.17 Q 344.61 -21.11 341.05 -21.11 L 341.05 -21.11 L 335.59 -21.11 Z M 368.24 -9.51 L 368.24 -9.51 L 374.77 -9.51 Q 374.79 -9.34 374.85 -9.04 Q 374.92 -8.75 375.3 -8.01 Q 375.68 -7.27 376.26 -6.7 Q 376.84 -6.13 378.01 -5.66 Q 379.18 -5.2 380.68 -5.2 L 380.68 -5.2 Q 382.71 -5.2 383.7 -5.91 Q 384.69 -6.62 384.69 -7.6 L 384.69 -7.6 Q 384.69 -8.11 384.4 -8.52 Q 384.12 -8.93 383.74 -9.2 Q 383.36 -9.47 382.64 -9.74 Q 381.91 -10 381.37 -10.15 Q 380.82 -10.29 379.88 -10.53 L 379.88 -10.53 Q 376 -11.45 374.16 -12.21 L 374.16 -12.21 Q 368.65 -14.49 368.65 -19.04 L 368.65 -19.04 Q 368.65 -21.48 370.13 -23.47 Q 371.6 -25.45 374.13 -26.56 Q 376.66 -27.68 379.73 -27.68 L 379.73 -27.68 Q 382.27 -27.68 384.38 -26.86 Q 386.5 -26.04 387.82 -24.72 Q 389.14 -23.4 389.85 -21.81 Q 390.57 -20.21 390.57 -18.59 L 390.57 -18.59 L 384.04 -18.59 Q 384.04 -19.75 382.82 -20.77 Q 381.6 -21.8 379.65 -21.8 L 379.65 -21.8 Q 378.03 -21.8 376.66 -21.12 Q 375.29 -20.45 375.29 -19.36 L 375.29 -19.36 Q 375.29 -18.44 376.47 -17.9 Q 377.66 -17.36 380.92 -16.52 L 380.92 -16.52 Q 384.63 -15.57 386.27 -14.82 L 386.27 -14.82 Q 390.72 -12.81 391.19 -8.96 L 391.19 -8.96 Q 391.25 -8.48 391.25 -7.97 L 391.25 -7.97 Q 391.25 -4.12 388.21 -1.82 Q 385.18 0.49 380.33 0.49 L 380.33 0.49 Q 377.87 0.49 375.81 -0.15 Q 373.75 -0.78 372.38 -1.81 Q 371.02 -2.83 370.06 -4.16 Q 369.1 -5.49 368.67 -6.85 Q 368.24 -8.2 368.24 -9.51 Z M 401.95 0 L 392.91 -27.21 L 399.9 -27.21 L 405.55 -9.55 L 411.74 -27.21 L 418.91 -27.21 L 424.43 -9.65 L 430.74 -27.21 L 437.79 -27.21 L 427.58 0 L 420.86 0 L 415.16 -17.71 L 408.75 0 L 401.95 0 Z M 440.06 0 L 433.11 0 L 444.75 -27.21 L 452.05 -27.21 L 463.73 0 L 456.74 0 L 454.98 -4.24 L 441.86 -4.24 L 440.06 0 Z M 448.46 -19.77 L 444.14 -9.61 L 452.7 -9.61 L 448.46 -19.77 Z M 474.57 0 L 467.97 0 L 467.97 -27.21 L 480.53 -27.21 Q 483.05 -27.21 485.06 -26.32 Q 487.07 -25.43 488.31 -23.94 Q 489.55 -22.44 490.21 -20.6 Q 490.86 -18.75 490.86 -16.72 L 490.86 -16.72 Q 490.86 -15.1 490.46 -13.56 Q 490.06 -12.03 489.21 -10.68 Q 488.36 -9.34 487.15 -8.33 Q 485.94 -7.32 484.23 -6.74 Q 482.52 -6.15 480.49 -6.15 L 480.49 -6.15 L 474.57 -6.15 L 474.57 0 Z M 474.57 -21.11 L 474.57 -12.21 L 479.79 -12.21 Q 481.82 -12.21 483.02 -13.38 Q 484.22 -14.55 484.22 -16.72 L 484.22 -16.72 Q 484.22 -18.85 483.03 -19.96 Q 481.84 -21.07 479.79 -21.11 L 479.79 -21.11 L 474.57 -21.11 Z" stroke-linecap="round" />
</g>
</svg>